<svg xmlns="http://www.w3.org/2000/svg" xmlns:xlink="http://www.w3.org/1999/xlink" width="500" zoomAndPan="magnify" viewBox="0 0 375 374.999991" height="500" preserveAspectRatio="xMidYMid meet" version="1.0"><defs><g/><clipPath id="697ced1aba"><path d="M 0.554688 0.554688 L 375 0.554688 L 375 375 L 0.554688 375 Z M 0.554688 0.554688 " clip-rule="nonzero"/></clipPath><clipPath id="39f5d78a2f"><path d="M 187.777344 0.554688 C 84.375 0.554688 0.554688 84.375 0.554688 187.777344 C 0.554688 291.175781 84.375 375 187.777344 375 C 291.175781 375 375 291.175781 375 187.777344 C 375 84.375 291.175781 0.554688 187.777344 0.554688 Z M 187.777344 0.554688 " clip-rule="nonzero"/></clipPath></defs><g clip-path="url(#697ced1aba)"><g clip-path="url(#39f5d78a2f)"><path fill="#5e17eb" d="M 0.554688 0.554688 L 375 0.554688 L 375 375 L 0.554688 375 Z M 0.554688 0.554688 " fill-opacity="1" fill-rule="nonzero"/></g></g><g fill="#ffffff" fill-opacity="1"><g transform="translate(65.531251, 230.137252)"><g><path d="M 10.125 0 L 10.125 -77.96875 L 25.546875 -77.96875 L 25.546875 -46.125 L 27.25 -46.125 L 53.28125 -77.96875 L 69.0625 -77.96875 L 69.0625 -76.640625 L 40.375 -41.171875 L 72.046875 -1.328125 L 72.046875 0 L 54.609375 0 L 27.25 -33.65625 L 25.546875 -33.65625 L 25.546875 0 Z M 10.125 0 "/></g></g></g><g fill="#ffffff" fill-opacity="1"><g transform="translate(137.578878, 230.137252)"><g><path d="M 24.265625 0 L 10.125 0 L 10.125 -77.96875 L 30.296875 -77.96875 L 50.015625 -20.640625 L 51.140625 -20.640625 L 70.765625 -77.96875 L 90.453125 -77.96875 L 90.453125 0 L 75.828125 0 L 75.828125 -51.515625 L 74.5 -51.734375 L 56.46875 0 L 43.625 0 L 25.59375 -51.734375 L 24.265625 -51.515625 Z M 24.265625 0 "/></g></g></g><g fill="#ffffff" fill-opacity="1"><g transform="translate(238.210907, 230.137252)"><g><path d="M 40.265625 -77.96875 C 45.847656 -77.96875 50.617188 -76.941406 54.578125 -74.890625 C 58.546875 -72.847656 61.539062 -69.988281 63.5625 -66.3125 C 65.59375 -62.632812 66.609375 -58.359375 66.609375 -53.484375 C 66.609375 -48.617188 65.59375 -44.351562 63.5625 -40.6875 C 61.539062 -37.03125 58.546875 -34.175781 54.578125 -32.125 C 50.617188 -30.082031 45.847656 -29.0625 40.265625 -29.0625 L 25.546875 -29.0625 L 25.546875 0 L 10.125 0 L 10.125 -77.96875 Z M 38.234375 -41.28125 C 46.804688 -41.28125 51.09375 -45.347656 51.09375 -53.484375 C 51.09375 -61.660156 46.804688 -65.75 38.234375 -65.75 L 25.546875 -65.75 L 25.546875 -41.28125 Z M 38.234375 -41.28125 "/></g></g></g></svg>